<?xml version="1.0" encoding="UTF-8"?>
<svg width="1024" height="1024" viewBox="0 0 1024 1024" xmlns="http://www.w3.org/2000/svg">
  <!-- Background gradient with La Liga inspired colors -->
  <defs>
    <linearGradient id="bgGradient" x1="0%" y1="0%" x2="100%" y2="100%">
      <stop offset="0%" style="stop-color:#e00c1a;stop-opacity:1" />
      <stop offset="100%" style="stop-color:#fbec21;stop-opacity:1" />
    </linearGradient>
    
    <!-- Shadow for hexagon -->
    <filter id="shadow" x="-50%" y="-50%" width="200%" height="200%">
      <feGaussianBlur in="SourceAlpha" stdDeviation="10"/>
      <feOffset dx="0" dy="5" result="offsetblur"/>
      <feFlood flood-color="#000000" flood-opacity="0.3"/>
      <feComposite in2="offsetblur" operator="in"/>
      <feMerge>
        <feMergeNode/>
        <feMergeNode in="SourceGraphic"/>
      </feMerge>
    </filter>
  </defs>
  
  <!-- White background circle -->
  <circle cx="512" cy="512" r="500" fill="white"/>
  
  <!-- Hexagon shape inspired by soccer patterns -->
  <g transform="translate(512, 512)">
    <!-- Outer hexagon with gradient -->
    <polygon points="0,-280 242,-140 242,140 0,280 -242,140 -242,-140" 
             fill="url(#bgGradient)" 
             filter="url(#shadow)"/>
    
    <!-- Inner white hexagon for contrast -->
    <polygon points="0,-240 207,-120 207,120 0,240 -207,120 -207,-120" 
             fill="white" 
             opacity="0.95"/>
    
    <!-- Secondary colored hexagon -->
    <polygon points="0,-200 173,-100 173,100 0,200 -173,100 -173,-100" 
             fill="url(#bgGradient)" 
             opacity="0.9"/>
  </g>
  
  <!-- LN Text in the center -->
  <g transform="translate(512, 512)">
    <!-- L letter -->
    <path d="M -90,-80 L -90,60 L -20,60 L -20,30 L -60,30 L -60,-80 Z" 
          fill="white" 
          stroke="white" 
          stroke-width="2"/>
    
    <!-- N letter -->
    <path d="M 20,-80 L 20,60 L 50,60 L 50,-20 L 80,60 L 110,60 L 110,-80 L 80,-80 L 80,20 L 50,-80 Z" 
          fill="white" 
          stroke="white" 
          stroke-width="2"/>
  </g>
  
  <!-- Decorative elements -->
  <g transform="translate(512, 512)">
    <!-- Top accent line -->
    <rect x="-100" y="-320" width="200" height="8" fill="#fbec21" rx="4"/>
    
    <!-- Bottom accent line -->
    <rect x="-100" y="312" width="200" height="8" fill="#e00c1a" rx="4"/>
    
    <!-- Side accents -->
    <circle cx="-320" cy="0" r="15" fill="#fbec21" opacity="0.8"/>
    <circle cx="320" cy="0" r="15" fill="#e00c1a" opacity="0.8"/>
  </g>
  
  <!-- Subtle soccer pattern elements -->
  <g transform="translate(512, 512)" opacity="0.15">
    <!-- Pentagon patterns reminiscent of soccer ball -->
    <polygon points="0,-340 -324,-105 -200,276 200,276 324,-105" 
             fill="none" 
             stroke="#000000" 
             stroke-width="2"/>
  </g>
</svg>